<svg xmlns="http://www.w3.org/2000/svg" viewBox="0 0 2509.000000 2509.000000" width="2509" height="2509" fill="none">
  <g transform="translate(0.000000,2509.000000) scale(0.100000,-0.100000)">
    <path d="M4205 25079 c-1421 -103 -2696 -855 -3478 -2049 -411 -630 -659
-1362 -717 -2120 -8 -105 -10 -2454 -8 -8465 l4 -8320 21 -151 c103 -723 313
-1307 677 -1881 288 -456 699 -895 1141 -1219 686 -503 1486 -799 2335 -864
105 -8 2453 -10 8455 -8 7862 3 8317 4 8440 21 342 46 640 112 909 202 1610
534 2790 1926 3050 3598 54 345 51 -212 51 8727 0 7960 -1 8312 -18 8470 -141
1278 -773 2398 -1782 3158 -658 495 -1378 781 -2245 889 -126 16 -709 17
-8430 19 -4562 1 -8344 -2 -8405 -7z" fill="#890FBC" />
    <path d="M13380 12555 l0 -4255 3703 0 3702 1 463 792 462 792 -3370 3 -3370
2 0 3460 0 3460 -795 0 -795 0 0 -4255z M5672 16779 c-398 -35 -814 -180 -1150 -401 -537 -353 -921 -894
-1072 -1510 -56 -231 -65 -310 -65 -603 0 -275 8 -365 51 -555 164 -720 639
-1338 1294 -1683 248 -131 482 -207 830 -268 47 -9 603 -14 1985 -18 l1920 -6
76 -22 c187 -53 321 -131 449 -262 124 -128 209 -284 247 -455 25 -109 22
-299 -5 -411 -94 -382 -415 -666 -807 -714 -64 -8 -966 -11 -3067 -11 l-2978
0 0 -790 0 -790 3063 0 c3339 0 3162 -3 3424 56 551 123 1062 438 1407 865
307 381 487 800 552 1289 22 166 22 463 0 630 -75 565 -322 1066 -721 1465
-348 348 -801 594 -1270 689 -255 52 -161 49 -2200 56 -2097 6 -1924 0 -2085
67 -211 87 -394 258 -491 459 -166 342 -106 755 150 1035 120 132 280 230 456
281 l80 23 3053 3 3052 2 0 795 0 795 -3042 -1 c-1674 -1 -3085 -5 -3136 -10z" fill="#FFFFFF" />
  </g>
</svg>
