<?xml version="1.0" encoding="utf-8"?>
<!-- Generator: Adobe Illustrator 27.2.0, SVG Export Plug-In . SVG Version: 6.00 Build 0)  -->
<svg version="1.1" id="Layer_1" xmlns="http://www.w3.org/2000/svg" xmlns:xlink="http://www.w3.org/1999/xlink" x="0px" y="0px"
	 viewBox="0 0 1920 1080" style="enable-background:new 0 0 1920 1080;" xml:space="preserve">
<style type="text/css">
	.st0{fill:#890FBC;}
	.st1{fill:#27063D;}
</style>
<g id="_x32_">
	<polygon class="st0" points="931.75,569.12 931.75,499.46 915.78,499.46 915.78,585.09 990.21,585.09 999.55,569.12 	"/>
	<polygon class="st0" points="1107.21,499.46 1107.21,585.09 1123.18,585.09 1123.18,526.77 1172.79,585.09 1188.77,585.09 
		1188.77,499.46 1172.8,499.46 1172.8,560.45 1120.91,499.46 	"/>
	<polygon class="st0" points="1276.01,515.43 1276.01,499.46 1199.65,499.46 1199.65,585.09 1276.01,585.09 1276.01,537.75 
		1260.04,537.75 1260.04,569.12 1215.62,569.12 1215.62,515.43 	"/>
	<polygon class="st0" points="1000.54,585.09 1018.73,585.09 1049.88,527.91 1081.04,585.09 1099.22,585.09 1049.88,494.53 	"/>
</g>
<g id="_x31_">
	<path class="st1" d="M906.4,524.86c0-14.01-11.39-25.4-25.4-25.4h-57.63v15.97H881c5.2,0,9.43,4.23,9.43,9.43
		c0,5.2-4.23,9.43-9.43,9.43h-57.63v15.97H881c5.2,0,9.43,4.23,9.43,9.43c0,5.2-4.23,9.43-9.43,9.43h-57.63v15.97H881
		c14.01,0,25.4-11.39,25.4-25.4c0-6.02-2.15-11.85-6.05-16.44l-0.83-0.98l0.83-0.98C904.25,536.71,906.4,530.87,906.4,524.86z"/>
	<path class="st1" d="M644.51,525.07c0,14.01,11.39,25.4,25.4,25.4h34.4c5.2,0,9.43,4.23,9.43,9.43c0,5.2-4.23,9.43-9.43,9.43h-59.8
		v15.97h59.8c14.01,0,25.4-11.39,25.4-25.4c0-14.01-11.39-25.4-25.4-25.4h-34.4c-5.2,0-9.43-4.23-9.43-9.43
		c0-5.2,4.23-9.43,9.43-9.43h59.8v-15.97h-59.8C655.9,499.67,644.51,511.07,644.51,525.07z"/>
	<path class="st1" d="M764.49,568.9c-5.2,0-9.43-4.23-9.43-9.43v-59.8h-15.97v59.8c0,12.07,8.59,22.54,20.42,24.91l1.21,0.24v0.25
		h30.13v-0.1l1.3-0.18c12.45-1.76,21.84-12.56,21.84-25.12v-59.8h-15.97v59.8c0,5.2-4.23,9.43-9.43,9.43H764.49z"/>
</g>
</svg>
